<?xml version="1.0" encoding="utf-8"?><svg xmlns="http://www.w3.org/2000/svg" xmlns:xlink="http://www.w3.org/1999/xlink"><symbol viewBox="0 0 15 8" id="arrow" xmlns="http://www.w3.org/2000/svg"><path d="M14.354 4.354a.5.5 0 0 0 0-.708L11.172.464a.5.5 0 1 0-.708.708L13.293 4l-2.829 2.828a.5.5 0 1 0 .708.708l3.182-3.182zM0 4.5h14v-1H0v1z"/></symbol><symbol viewBox="0 0 9 9" id="arrow-next" xmlns="http://www.w3.org/2000/svg"><path d="M8.791 4.854a.5.5 0 0 0 0-.708L5.609.964a.5.5 0 1 0-.707.708L7.73 4.5 4.902 7.328a.5.5 0 1 0 .707.708l3.182-3.182zM.562 5h7.875V4H.564v1z"/></symbol><symbol viewBox="0 0 9 9" id="arrow-prev" xmlns="http://www.w3.org/2000/svg"><path d="M.209 4.854a.5.5 0 0 1 0-.708L3.39.964a.5.5 0 1 1 .707.708L1.27 4.5l2.828 2.828a.5.5 0 1 1-.707.708L.209 4.854zM8.438 5H.561V4h7.875v1z"/></symbol><symbol viewBox="0 0 18 18" id="facebook" xmlns="http://www.w3.org/2000/svg"><path opacity=".9" d="M18 .992v16.012c0 .55-.446.992-.992.992h-4.589v-6.967h2.339l.35-2.716h-2.693V6.577c0-.787.217-1.322 1.346-1.322H15.2v-2.43a19.082 19.082 0 0 0-2.098-.109c-2.073 0-3.495 1.266-3.495 3.592v2.005H7.26v2.716h2.347V18H.992A.995.995 0 0 1 0 17.008V.992C0 .446.446 0 .992 0h16.012c.55 0 .996.446.996.992z"/></symbol><symbol viewBox="0 0 18 18" id="instagram" xmlns="http://www.w3.org/2000/svg"><path opacity=".9" d="M9.002 4.384a4.607 4.607 0 0 0-4.614 4.614 4.607 4.607 0 0 0 4.614 4.614 4.607 4.607 0 0 0 4.614-4.614 4.607 4.607 0 0 0-4.614-4.614zm0 7.614c-1.65 0-3-1.346-3-3s1.346-3 3-3 3 1.346 3 3-1.35 3-3 3zm5.879-7.803c0 .599-.482 1.076-1.076 1.076a1.076 1.076 0 1 1 1.076-1.076zm3.056 1.093c-.069-1.442-.398-2.719-1.454-3.771C15.431.465 14.154.136 12.713.063c-1.486-.084-5.94-.084-7.425 0-1.438.069-2.715.398-3.771 1.45S.136 3.842.063 5.283c-.084 1.486-.084 5.94 0 7.425.069 1.442.398 2.719 1.454 3.771s2.329 1.381 3.77 1.454c1.486.084 5.94.084 7.425 0 1.442-.069 2.719-.398 3.771-1.454 1.052-1.052 1.381-2.329 1.454-3.77.084-1.486.084-5.936 0-7.421zm-1.92 9.015a3.037 3.037 0 0 1-1.71 1.71c-1.185.47-3.996.362-5.305.362-1.31 0-4.124.104-5.305-.362a3.037 3.037 0 0 1-1.71-1.71c-.47-1.185-.362-3.996-.362-5.305 0-1.31-.104-4.124.362-5.305a3.037 3.037 0 0 1 1.71-1.71c1.185-.47 3.996-.362 5.305-.362 1.31 0 4.124-.104 5.305.362.787.313 1.393.92 1.71 1.71.47 1.185.362 3.996.362 5.305 0 1.31.108 4.124-.362 5.305z"/></symbol><symbol viewBox="0 0 99 27" id="logo" xmlns="http://www.w3.org/2000/svg"><g filter="url(#ffilter0_d)"><path d="M16.392 5.16c-1.616-.8-3.256-1.2-4.92-1.2-.752 0-1.32.136-1.704.408-.384.256-.576.6-.576 1.032 0 .672.52 1.152 1.56 1.44 2.512.672 4.28 1.48 5.304 2.424 1.024.928 1.536 2.12 1.536 3.576 0 1.76-.608 3.104-1.824 4.032-1.216.912-3.048 1.368-5.496 1.368-1.024 0-2.128-.168-3.312-.504-1.168-.352-2.104-.784-2.808-1.296l1.08-3.72c.816.56 1.696 1 2.64 1.32.96.32 1.84.48 2.64.48 1.44 0 2.16-.52 2.16-1.56 0-.672-.64-1.192-1.92-1.56-2.336-.672-4-1.48-4.992-2.424S4.272 6.84 4.272 5.4c0-1.584.6-2.84 1.8-3.768C7.288.704 9.008.24 11.232.24c2.368 0 4.368.4 6 1.2l-.84 3.72zm11.743 13.08c-1.584 0-2.76-.36-3.528-1.08-.768-.736-1.152-1.896-1.152-3.48V9.12h-2.52V6h2.52V1.44h4.656V6h3.864v3.12h-3.864v3.84c0 .768.088 1.28.264 1.536.176.256.496.384.96.384.704 0 1.424-.12 2.16-.36l.48 3.24c-1.184.32-2.464.48-3.84.48zm16.63-1.92a4.97 4.97 0 0 1-1.68 1.416 4.374 4.374 0 0 1-2.016.504c-1.504 0-2.584-.392-3.24-1.176-.64-.784-.96-2.152-.96-4.104V5.52h4.512v6.96c0 .928.088 1.544.264 1.848.176.288.504.432.984.432.496 0 .936-.272 1.32-.816.4-.544.6-1.192.6-1.944V5.52h4.56V18h-4.2l-.096-1.68h-.048zm8.644-4.56c0-2.064.44-3.656 1.32-4.776.896-1.136 2.096-1.704 3.6-1.704 1.36 0 2.504.56 3.432 1.68h.048V0h4.56v18h-4.2l-.096-1.68h-.048c-1.008 1.28-2.24 1.92-3.696 1.92-1.44 0-2.624-.576-3.552-1.728-.912-1.152-1.368-2.736-1.368-4.752zm4.32 0c0 .96.192 1.704.576 2.232.384.512.872.768 1.464.768.624 0 1.12-.248 1.488-.744.368-.496.552-1.208.552-2.136v-.24c0-.912-.184-1.616-.552-2.112-.368-.512-.864-.768-1.488-.768-.64 0-1.144.256-1.512.768-.352.496-.528 1.24-.528 2.232zm14.255-8.4V0h4.8v3.36h-4.8zm0 14.64V5.52h4.8V18h-4.8zM83.181 7.008c1.152-1.152 2.776-1.728 4.872-1.728s3.72.576 4.872 1.728c1.152 1.152 1.728 2.736 1.728 4.752 0 2.016-.576 3.6-1.728 4.752-1.152 1.152-2.776 1.728-4.872 1.728s-3.72-.576-4.872-1.728c-1.152-1.152-1.728-2.736-1.728-4.752 0-2.016.576-3.6 1.728-4.752zm3.264 7.224c.352.496.888.744 1.608.744.72 0 1.256-.248 1.608-.744.352-.496.528-1.32.528-2.472s-.176-1.976-.528-2.472c-.352-.496-.888-.744-1.608-.744-.72 0-1.256.248-1.608.744-.352.496-.528 1.32-.528 2.472s.176 1.976.528 2.472z"/></g><defs><filter id="ffilter0_d" x=".152" y="0" width="98.501" height="26.24" filterUnits="userSpaceOnUse" color-interpolation-filters="sRGB"><feFlood flood-opacity="0" result="BackgroundImageFix"/><feColorMatrix in="SourceAlpha" values="0 0 0 0 0 0 0 0 0 0 0 0 0 0 0 0 0 0 127 0"/><feOffset dy="4"/><feGaussianBlur stdDeviation="2"/><feColorMatrix values="0 0 0 0 0 0 0 0 0 0 0 0 0 0 0 0 0 0 0.25 0"/><feBlend in2="BackgroundImageFix" result="effect1_dropShadow"/><feBlend in="SourceGraphic" in2="effect1_dropShadow" result="shape"/></filter></defs></symbol><symbol viewBox="0 0 18 15" id="m" xmlns="http://www.w3.org/2000/svg"><path opacity=".9" d="M2.132 2.914a.703.703 0 0 0-.227-.588L.227.3V0h5.217l4.034 8.846L13.025 0H18v.301l-1.436 1.377a.419.419 0 0 0-.16.402v10.122a.419.419 0 0 0 .16.402l1.402 1.377v.301h-7.059v-.301l1.455-1.41c.142-.142.142-.187.142-.402v-8.18L8.459 14.256h-.547L3.208 3.99v6.881a.94.94 0 0 0 .26.789l1.89 2.292v.302H0v-.298l1.89-2.296a.907.907 0 0 0 .242-.789V2.914z"/></symbol><symbol viewBox="0 0 12 9" id="mail" xmlns="http://www.w3.org/2000/svg"><path d="M10.875 0h-9.75C.504 0 0 .504 0 1.125v6.75C0 8.496.504 9 1.125 9h9.75C11.496 9 12 8.496 12 7.875v-6.75C12 .504 11.496 0 10.875 0zm-9.75.75h9.75c.206 0 .375.169.375.375v.97c-.513.434-1.247 1.032-3.53 2.843C7.324 5.252 6.544 6.01 6 6c-.544.01-1.327-.748-1.72-1.062C1.997 3.127 1.263 2.528.75 2.095v-.97C.75.919.919.75 1.125.75zm9.75 7.5h-9.75a.376.376 0 0 1-.375-.375V3.07c.534.439 1.378 1.116 3.063 2.454.48.385 1.33 1.23 2.187 1.226.853.007 1.695-.832 2.187-1.226A277.865 277.865 0 0 0 11.25 3.07v4.805a.376.376 0 0 1-.375.375z"/></symbol><symbol viewBox="0 0 18 29" id="phone" xmlns="http://www.w3.org/2000/svg"><path d="M12.6 5.4v13.5H5.4V5.4h7.2zM15.3 0H2.7A2.7 2.7 0 0 0 0 2.7v23.4a2.7 2.7 0 0 0 2.7 2.7h12.6a2.7 2.7 0 0 0 2.7-2.7V2.7A2.7 2.7 0 0 0 15.3 0zM2.7 27a.903.903 0 0 1-.9-.9V2.7c0-.495.405-.9.9-.9h12.6c.495 0 .9.405.9.9v23.4c0 .495-.405.9-.9.9H2.7zM13.725 3.6h-9.45a.677.677 0 0 0-.675.675v15.75c0 .371.304.675.675.675h9.45a.677.677 0 0 0 .675-.675V4.275a.677.677 0 0 0-.675-.675zm-2.7 19.8h-4.05a.677.677 0 0 0-.675.675v.45c0 .371.304.675.675.675h4.05a.677.677 0 0 0 .675-.675v-.45a.677.677 0 0 0-.675-.675z"/></symbol><symbol viewBox="0 0 21 46" id="scroll-btn" xmlns="http://www.w3.org/2000/svg"><mask id="ja"><path fill-rule="evenodd" clip-rule="evenodd" d="M21 10.5c0 .168-.004.334-.012.5H21v25h-.012c-.26 5.567-4.857 10-10.488 10C4.869 46 .273 41.567.012 36H0V11h.012A10.677 10.677 0 0 1 0 10.5C0 4.701 4.701 0 10.5 0S21 4.701 21 10.5z"/></mask><path d="M20.988 11l-.999-.047L19.94 12h1.048v-1zM21 11h1v-1h-1v1zm0 25v1h1v-1h-1zm-.012 0v-1h-.954l-.045.953 1 .047zM.012 36l.999-.047L.966 35H.012v1zM0 36h-1v1h1v-1zm0-25v-1h-1v1h1zm.012 0v1H1.06l-.05-1.047L.013 11zm21.975.047c.009-.181.013-.364.013-.547h-2c0 .152-.004.303-.01.453l1.997.094zM21 10h-.012v2H21v-2zm1 25.5V11h-2v24.5h2zm0 .5v-.5h-2v.5h2zm-1.012 1H21v-2h-.012v2zm-.999-1.047A9.5 9.5 0 0 1 10.5 45v2c6.168 0 11.201-4.855 11.487-10.953l-1.998-.094zM10.5 45a9.5 9.5 0 0 1-9.49-9.047l-1.997.094C-.701 42.145 4.332 47 10.5 47v-2zM0 37h.012v-2H0v2zm-1-1.5v.5h2v-.5h-2zM-1 11v24.5h2V11h-2zm1.012-1H0v2h.012v-2zM-1 10.5c0 .183.004.366.013.547l1.998-.094A9.673 9.673 0 0 1 1 10.5h-2zM10.5-1C4.149-1-1 4.149-1 10.5h2A9.5 9.5 0 0 1 10.5 1v-2zM22 10.5C22 4.149 16.851-1 10.5-1v2a9.5 9.5 0 0 1 9.5 9.5h2z" fill-opacity=".5" mask="url(#ja)"/><path d="M10.646 37.354a.5.5 0 0 0 .708 0l3.182-3.182a.5.5 0 1 0-.708-.707L11 36.293l-2.828-2.828a.5.5 0 1 0-.708.707l3.182 3.182zM10.5 10v27h1V10h-1z"/></symbol><symbol viewBox="0 0 18 15" id="twitter" xmlns="http://www.w3.org/2000/svg"><path opacity=".9" d="M16.15 3.643c.011.16.011.32.011.48C16.161 9 12.45 14.62 5.665 14.62c-2.09 0-4.032-.605-5.665-1.656.297.035.582.046.89.046a7.389 7.389 0 0 0 4.58-1.576 3.696 3.696 0 0 1-3.448-2.559c.228.035.456.057.696.057.332 0 .663-.045.971-.125a3.69 3.69 0 0 1-2.958-3.62V5.14a3.715 3.715 0 0 0 1.667.468A3.687 3.687 0 0 1 .754 2.536c0-.686.182-1.314.502-1.862a10.486 10.486 0 0 0 7.607 3.86 4.164 4.164 0 0 1-.091-.845A3.687 3.687 0 0 1 12.46 0a3.68 3.68 0 0 1 2.695 1.165 7.264 7.264 0 0 0 2.341-.89 3.68 3.68 0 0 1-1.621 2.032A7.396 7.396 0 0 0 18 1.737a7.932 7.932 0 0 1-1.85 1.906z"/></symbol><symbol viewBox="0 0 26 18" id="youtube" xmlns="http://www.w3.org/2000/svg"><path opacity=".9" d="M25.065 2.816A3.217 3.217 0 0 0 22.802.538C20.805 0 12.8 0 12.8 0S4.795 0 2.798.538A3.217 3.217 0 0 0 .535 2.816C0 4.826 0 9.018 0 9.018s0 4.193.535 6.202c.294 1.109 1.162 1.945 2.263 2.242C4.795 18 12.8 18 12.8 18s8.005 0 10.002-.538c1.101-.297 1.969-1.133 2.263-2.242.535-2.01.535-6.202.535-6.202s0-4.192-.535-6.202zM10.182 12.825V5.212l6.69 3.806-6.69 3.807z"/></symbol></svg>