<svg width="99" height="27" viewBox="0 0 99 27" fill="none" xmlns="http://www.w3.org/2000/svg">
<g filter="url(#filter0_d)">
<path d="M16.392 5.16C14.776 4.36 13.136 3.96 11.472 3.96C10.72 3.96 10.152 4.096 9.768 4.368C9.384 4.624 9.192 4.968 9.192 5.4C9.192 6.072 9.712 6.552 10.752 6.84C13.264 7.512 15.032 8.32 16.056 9.264C17.08 10.192 17.592 11.384 17.592 12.84C17.592 14.6 16.984 15.944 15.768 16.872C14.552 17.784 12.72 18.24 10.272 18.24C9.248 18.24 8.144 18.072 6.96 17.736C5.792 17.384 4.856 16.952 4.152 16.44L5.232 12.72C6.048 13.28 6.928 13.72 7.872 14.04C8.832 14.36 9.712 14.52 10.512 14.52C11.952 14.52 12.672 14 12.672 12.96C12.672 12.288 12.032 11.768 10.752 11.4C8.416 10.728 6.752 9.92 5.76 8.976C4.768 8.032 4.272 6.84 4.272 5.4C4.272 3.816 4.872 2.56 6.072 1.632C7.288 0.704 9.008 0.24 11.232 0.24C13.6 0.24 15.6 0.639999 17.232 1.44L16.392 5.16ZM28.1354 18.24C26.5514 18.24 25.3754 17.88 24.6074 17.16C23.8394 16.424 23.4554 15.264 23.4554 13.68V9.12H20.9354V6H23.4554V1.44H28.1114V6H31.9754V9.12H28.1114V12.96C28.1114 13.728 28.1994 14.24 28.3754 14.496C28.5514 14.752 28.8714 14.88 29.3354 14.88C30.0394 14.88 30.7594 14.76 31.4954 14.52L31.9754 17.76C30.7914 18.08 29.5114 18.24 28.1354 18.24ZM44.7646 16.32C44.3166 16.912 43.7566 17.384 43.0846 17.736C42.4286 18.072 41.7566 18.24 41.0686 18.24C39.5646 18.24 38.4846 17.848 37.8286 17.064C37.1886 16.28 36.8686 14.912 36.8686 12.96V5.52H41.3806V12.48C41.3806 13.408 41.4686 14.024 41.6446 14.328C41.8206 14.616 42.1486 14.76 42.6286 14.76C43.1246 14.76 43.5646 14.488 43.9486 13.944C44.3486 13.4 44.5486 12.752 44.5486 12V5.52H49.1086V18H44.9086L44.8126 16.32H44.7646ZM53.4092 11.76C53.4092 9.696 53.8492 8.104 54.7292 6.984C55.6252 5.848 56.8252 5.28 58.3292 5.28C59.6892 5.28 60.8332 5.84 61.7612 6.96H61.8092V-1.43051e-06H66.3692V18H62.1692L62.0732 16.32H62.0252C61.0172 17.6 59.7852 18.24 58.3292 18.24C56.8892 18.24 55.7052 17.664 54.7772 16.512C53.8652 15.36 53.4092 13.776 53.4092 11.76ZM57.7292 11.76C57.7292 12.72 57.9212 13.464 58.3052 13.992C58.6892 14.504 59.1772 14.76 59.7692 14.76C60.3932 14.76 60.8892 14.512 61.2572 14.016C61.6252 13.52 61.8092 12.808 61.8092 11.88V11.64C61.8092 10.728 61.6252 10.024 61.2572 9.528C60.8892 9.016 60.3932 8.76 59.7692 8.76C59.1292 8.76 58.6252 9.016 58.2572 9.528C57.9052 10.024 57.7292 10.768 57.7292 11.76ZM71.9842 3.36V-1.43051e-06H76.7842V3.36H71.9842ZM71.9842 18V5.52H76.7842V18H71.9842ZM83.1813 7.008C84.3333 5.856 85.9573 5.28 88.0533 5.28C90.1493 5.28 91.7733 5.856 92.9253 7.008C94.0773 8.16 94.6533 9.744 94.6533 11.76C94.6533 13.776 94.0773 15.36 92.9253 16.512C91.7733 17.664 90.1493 18.24 88.0533 18.24C85.9573 18.24 84.3333 17.664 83.1813 16.512C82.0293 15.36 81.4533 13.776 81.4533 11.76C81.4533 9.744 82.0293 8.16 83.1813 7.008ZM86.4453 14.232C86.7973 14.728 87.3333 14.976 88.0533 14.976C88.7733 14.976 89.3093 14.728 89.6613 14.232C90.0133 13.736 90.1893 12.912 90.1893 11.76C90.1893 10.608 90.0133 9.784 89.6613 9.288C89.3093 8.792 88.7733 8.544 88.0533 8.544C87.3333 8.544 86.7973 8.792 86.4453 9.288C86.0933 9.784 85.9173 10.608 85.9173 11.76C85.9173 12.912 86.0933 13.736 86.4453 14.232Z" fill="#FCFCFC"/>
</g>
<defs>
<filter id="filter0_d" x="0.151978" y="0" width="98.5013" height="26.24" filterUnits="userSpaceOnUse" color-interpolation-filters="sRGB">
<feFlood flood-opacity="0" result="BackgroundImageFix"/>
<feColorMatrix in="SourceAlpha" type="matrix" values="0 0 0 0 0 0 0 0 0 0 0 0 0 0 0 0 0 0 127 0"/>
<feOffset dy="4"/>
<feGaussianBlur stdDeviation="2"/>
<feColorMatrix type="matrix" values="0 0 0 0 0 0 0 0 0 0 0 0 0 0 0 0 0 0 0.25 0"/>
<feBlend mode="normal" in2="BackgroundImageFix" result="effect1_dropShadow"/>
<feBlend mode="normal" in="SourceGraphic" in2="effect1_dropShadow" result="shape"/>
</filter>
</defs>
</svg>
